<?xml version="1.0" encoding="utf-8"?>
<!-- Generator: Adobe Illustrator 17.0.0, SVG Export Plug-In . SVG Version: 6.00 Build 0)  -->
<!DOCTYPE svg PUBLIC "-//W3C//DTD SVG 1.1//EN" "http://www.w3.org/Graphics/SVG/1.1/DTD/svg11.dtd">
<svg version="1.1" id="Layer_1" xmlns="http://www.w3.org/2000/svg" xmlns:xlink="http://www.w3.org/1999/xlink" x="0px" y="0px"
	 width="144.473px" height="45.994px" viewBox="0 0 144.473 45.994" enable-background="new 0 0 144.473 45.994"
	 xml:space="preserve">
<g id="Logo" transform="translate(-34.704 -83.957)">
	<g id="Group_724">
		<path id="Path_1903" fill="#FFFFFF" d="M81.447,98.613c0-0.989,0.267-1.23,1.23-1.23h0.374c0.989,0,1.23,0.267,1.23,1.23v18.049
			c0,1.2,0.508,1.711,1.711,1.711h8.236c0.909,0,1.123,0.214,1.123,1.123v0.4c0,0.909-0.214,1.123-1.123,1.123h-8.851
			c-2.754,0-3.931-1.2-3.931-3.931L81.447,98.613z"/>
	</g>
	<g id="Group_725">
		<path id="Path_1904" fill="#FFFFFF" d="M101.741,116.661c0,1.2,0.508,1.711,1.711,1.711h9.679c0.909,0,1.123,0.214,1.123,1.123
			v0.4c0,0.909-0.214,1.123-1.123,1.123h-10.293c-2.754,0-3.931-1.2-3.931-3.931v-15.8c0-2.727,1.177-3.931,3.931-3.931h10.294
			c0.909,0,1.123,0.214,1.123,1.123v0.4c0,0.909-0.214,1.123-1.123,1.123h-9.679c-1.2,0-1.711,0.508-1.711,1.711v5.643h9.92
			c0.909,0,1.123,0.214,1.123,1.123v0.4c0,0.909-0.214,1.123-1.123,1.123h-9.92L101.741,116.661z"/>
	</g>
	<g id="Group_726">
		<path id="Path_1905" fill="#FFFFFF" d="M136.93,119.817c0.267,0.936,0.08,1.2-0.909,1.2h-0.374c-0.989,0-1.31-0.267-1.578-1.2
			l-1.711-6.123h-10.883l-1.685,6.123c-0.267,0.936-0.588,1.2-1.578,1.2h-0.4c-0.989,0-1.177-0.267-0.909-1.2l4.866-17.434
			c1.123-4.011,2.005-5.348,5.134-5.348c3.1,0,4.011,1.337,5.107,5.348L136.93,119.817z M122.197,111.127h9.492l-2.513-9.064
			c-0.535-2.005-1.016-2.487-2.219-2.487c-1.23,0-1.711,0.481-2.246,2.487L122.197,111.127z"/>
	</g>
	<g id="Group_727">
		<path id="Path_1906" fill="#FFFFFF" d="M150.085,97.383c5.963,0,7.888,2.834,7.888,7.487s-1.952,7.487-7.888,7.487h-6.471v7.433
			c0,0.989-0.267,1.23-1.23,1.23h-0.374c-0.989,0-1.23-0.267-1.23-1.23v-18.476c0-2.727,1.177-3.931,3.931-3.931h5.375H150.085z
			 M145.325,100.03c-1.2,0-1.711,0.508-1.711,1.711v7.995h6.471c4.038,0,5.054-1.6,5.054-4.866c0-3.209-1.043-4.84-5.054-4.84
			H145.325z"/>
	</g>
	<g id="Group_728">
		<path id="Path_1907" fill="#FFFFFF" d="M171.289,97.383c5.963,0,7.888,2.834,7.888,7.487s-1.952,7.487-7.888,7.487h-6.471v7.433
			c0,0.989-0.267,1.23-1.23,1.23h-0.374c-0.989,0-1.23-0.267-1.23-1.23v-18.476c0-2.727,1.177-3.931,3.931-3.931h5.375H171.289z
			 M166.529,100.03c-1.2,0-1.711,0.508-1.711,1.711v7.995h6.471c4.038,0,5.054-1.6,5.054-4.866c0-3.209-1.043-4.84-5.054-4.84
			H166.529z"/>
	</g>
	<g id="Group_729">
		<path id="Path_1908" fill="#FFFFFF" d="M81.045,129.871v-4.733h2.112c0.658-0.076,1.254,0.397,1.329,1.055
			c0.006,0.048,0.008,0.096,0.008,0.145c0.011,0.514-0.332,0.969-0.829,1.1c0.552,0.12,0.944,0.612,0.936,1.177
			c0.025,0.687-0.512,1.263-1.198,1.288c-0.055,0.002-0.111,0-0.166-0.005h-2.192V129.871z M83.879,126.422
			c0.011-0.419-0.32-0.767-0.74-0.778c-0.03-0.001-0.06,0-0.09,0.003h-1.417v1.524h1.417c0.406,0.049,0.775-0.24,0.824-0.645
			C83.878,126.491,83.88,126.457,83.879,126.422 M83.959,128.534c0.01-0.449-0.346-0.822-0.796-0.832
			c-0.029-0.001-0.057,0-0.086,0.003h-1.471v1.633h1.471c0.428,0.055,0.82-0.247,0.876-0.675c0.005-0.041,0.007-0.083,0.006-0.125"
			/>
	</g>
	<g id="Group_730">
		<path id="Path_1909" fill="#FFFFFF" d="M90.217,129.871v-2.005l-1.872-2.755h0.7l1.471,2.219l1.471-2.219h0.7l-1.845,2.754v2.005
			L90.217,129.871z"/>
	</g>
	<g id="Group_731">
		<path id="Path_1910" fill="#FFFFFF" d="M101.955,129.203l0.348-0.455c0.375,0.439,0.922,0.694,1.5,0.7
			c0.856,0,1.123-0.455,1.123-0.829c0-1.23-2.808-0.535-2.808-2.246c0-0.775,0.7-1.31,1.631-1.31
			c0.631-0.028,1.245,0.215,1.685,0.668l-0.348,0.428c-0.35-0.378-0.849-0.584-1.364-0.562c-0.562,0-0.963,0.294-0.963,0.749
			c0,1.07,2.808,0.455,2.808,2.219c0,0.7-0.481,1.39-1.738,1.39c-0.702,0.027-1.382-0.245-1.872-0.749"/>
	</g>
	<g id="Group_732">
		<path id="Path_1911" fill="#FFFFFF" d="M113.319,129.871v-2.193h-2.781v2.193h-0.588v-4.76h0.588v2.059h2.781v-2.059h0.588v4.76
			H113.319z"/>
	</g>
	<g id="Group_733">
		<path id="Path_1912" fill="#FFFFFF" d="M121.956,129.871l-0.428-1.07h-2.349l-0.428,1.07h-0.672l1.925-4.733h0.722l1.9,4.733
			H121.956z M120.356,125.726l-1.016,2.567h2.005L120.356,125.726z"/>
	</g>
	<g id="Group_734">
		<path id="Path_1913" fill="#FFFFFF" d="M129.55,129.871l-1.2-1.872h-0.963v1.872h-0.591v-4.733h1.9
			c0.771-0.055,1.441,0.525,1.497,1.296c0.003,0.04,0.004,0.08,0.003,0.121c0.03,0.719-0.513,1.333-1.23,1.39l1.283,1.925
			L129.55,129.871z M129.577,126.555c0.006-0.497-0.392-0.905-0.889-0.911c-0.025,0-0.05,0-0.074,0.002h-1.257v1.818h1.257
			c0.487,0.043,0.917-0.316,0.96-0.803C129.577,126.626,129.578,126.59,129.577,126.555"/>
	</g>
	<g id="Group_735">
		<path id="Path_1914" fill="#FFFFFF" d="M134.684,129.871v-4.76h3.1v0.535h-2.513v1.524h2.46v0.535h-2.46v1.631h2.513v0.535
			H134.684z"/>
	</g>
	<g id="Group_736">
		<path id="Path_1915" fill="#FFFFFF" d="M145.139,129.871l-1.792-2.139l-0.481,0.535v1.6h-0.588v-4.756h0.588v2.46l2.086-2.46
			h0.749l-1.979,2.246l2.166,2.513L145.139,129.871z"/>
	</g>
	<g id="Group_737">
		<path id="Path_1916" fill="#FFFFFF" d="M153.454,129.871v-2.193h-2.781v2.193h-0.588v-4.76h0.588v2.059h2.781v-2.059h0.588v4.76
			H153.454z"/>
	</g>
	<g id="Group_738">
		<path id="Path_1917" fill="#FFFFFF" d="M162.091,129.871l-0.428-1.07h-2.349l-0.428,1.07h-0.672l1.925-4.733h0.722l1.9,4.733
			H162.091z M160.491,125.726l-1.016,2.567h2.005L160.491,125.726z"/>
	</g>
	<g id="Group_739">
		<path id="Path_1918" fill="#FFFFFF" d="M170.3,129.871l-2.781-3.8v3.8h-0.588v-4.76h0.615l2.727,3.717v-3.717h0.588v4.76H170.3z"
			/>
	</g>
	<g id="Group_740">
		<path id="Path_1919" fill="#FFFFFF" d="M83.987,85.484c1.196,0,2.166,0.97,2.166,2.166c0,1.196-0.97,2.166-2.166,2.166h-1.5v1.551
			c0,0.455-0.107,0.588-0.588,0.588h-0.187c-0.455,0-0.588-0.107-0.588-0.588v-4.71c0-0.829,0.348-1.2,1.2-1.2h1.658L83.987,85.484z
			 M82.81,86.714c-0.214,0-0.294,0.08-0.294,0.294v1.549h1.5c0.642,0,0.856-0.321,0.856-0.909c0-0.615-0.214-0.936-0.856-0.936
			L82.81,86.714z"/>
	</g>
	<g id="Group_741">
		<path id="Path_1920" fill="#FFFFFF" d="M92.918,89.522l1.31,1.952c0.267,0.374,0.187,0.481-0.267,0.481h-0.374
			c-0.373,0.04-0.732-0.151-0.909-0.481l-1.2-1.845h-0.909v1.765c0,0.455-0.107,0.588-0.588,0.588h-0.187
			c-0.455,0-0.588-0.107-0.588-0.588v-4.71c0-0.829,0.348-1.2,1.2-1.2h1.631c1.578,0,2.193,0.829,2.193,2.059
			c0.147,0.9-0.424,1.762-1.31,1.979 M90.861,86.714c-0.214,0-0.294,0.08-0.294,0.294v1.337h1.5c0.642,0,0.856-0.321,0.856-0.829
			c0-0.535-0.214-0.829-0.856-0.829h-1.2L90.861,86.714z"/>
	</g>
	<g id="Group_742">
		<path id="Path_1921" fill="#FFFFFF" d="M97.329,89.442v-1.39c0-1.524,0.562-2.647,2.754-2.647s2.754,1.123,2.754,2.647v1.39
			c0,1.524-0.561,2.647-2.754,2.647S97.329,90.966,97.329,89.442 M101.474,88.052c0-0.909-0.214-1.39-1.39-1.39
			c-1.2,0-1.39,0.481-1.39,1.39v1.39c0,0.909,0.214,1.39,1.39,1.39c1.2,0,1.39-0.481,1.39-1.39V88.052z"/>
	</g>
	<g id="Group_743">
		<path id="Path_1922" fill="#FFFFFF" d="M107.383,90.19c0.115,1.27-0.358,2.523-1.283,3.4c-0.321,0.294-0.535,0.267-0.775-0.107
			l-0.053-0.08c-0.267-0.374-0.187-0.508,0.107-0.856c0.515-0.63,0.766-1.435,0.7-2.246v-4.225c0-0.455,0.107-0.588,0.588-0.588
			h0.187c0.455,0,0.588,0.107,0.588,0.588v4.118L107.383,90.19z"/>
	</g>
	<g id="Group_744">
		<path id="Path_1923" fill="#FFFFFF" d="M112.17,90.404c0,0.214,0.08,0.294,0.294,0.294h2.407c0.455,0,0.588,0.107,0.588,0.588
			v0.08c0,0.455-0.107,0.588-0.588,0.588h-2.838c-0.829,0-1.2-0.348-1.2-1.2v-4.097c0-0.829,0.348-1.2,1.2-1.2h2.861
			c0.455,0,0.588,0.107,0.588,0.588v0.08c0,0.455-0.107,0.588-0.588,0.588h-2.406c-0.214,0-0.294,0.08-0.294,0.294v0.989h2.326
			c0.455,0,0.588,0.107,0.588,0.588v0.08c0,0.455-0.107,0.588-0.588,0.588h-2.326v1.15L112.17,90.404z"/>
	</g>
	<g id="Group_745">
		<path id="Path_1924" fill="#FFFFFF" d="M119.79,89.575c0,0.7,0.267,1.257,1.5,1.257c0.363,0.004,0.724-0.05,1.07-0.16
			c0.455-0.107,0.562,0,0.562,0.455v0.08c0,0.455-0.107,0.562-0.535,0.722c-0.37,0.127-0.76,0.181-1.15,0.16
			c-1.818,0-2.808-0.7-2.808-2.487v-1.6c0-1.578,0.909-2.594,2.834-2.594c0.381-0.011,0.761,0.043,1.123,0.16
			c0.428,0.16,0.562,0.267,0.562,0.722v0.08c0,0.455-0.134,0.588-0.588,0.455c-0.355-0.114-0.727-0.168-1.1-0.16
			c-1.043,0-1.444,0.428-1.444,1.364v1.551L119.79,89.575z"/>
	</g>
	<g id="Group_746">
		<path id="Path_1925" fill="#FFFFFF" d="M125.406,86.045c0-0.455,0.107-0.588,0.588-0.588h4.011c0.455,0,0.588,0.107,0.588,0.588
			v0.08c0,0.455-0.107,0.588-0.588,0.588h-1.337v4.653c0,0.455-0.107,0.588-0.588,0.588h-0.187c-0.455,0-0.588-0.107-0.588-0.588
			v-4.653h-1.337c-0.455,0-0.588-0.107-0.588-0.588v-0.08L125.406,86.045z"/>
	</g>
	<g id="Group_747">
		<path id="Path_1926" fill="#FFFFFF" d="M53.237,96.447c0.112,0.069,0.247,0.088,0.374,0.053c0.137-0.029,0.255-0.117,0.321-0.241
			c0.074-0.12,0.154-0.236,0.241-0.348c0.027-0.027,0.053-0.053,0.053-0.08c0.053-0.08,0.107-0.16,0.214-0.16
			c0.08,0,0.16,0.08,0.241,0.241c0.271,0.483,0.783,0.78,1.337,0.775c0.856-0.001,1.55-0.695,1.551-1.551v-0.08
			c0-0.107,0-0.241,0.107-0.294c0.096-0.045,0.208-0.034,0.294,0.027c0.107,0.053,0.241,0.107,0.348,0.16
			c0.125,0.062,0.268,0.071,0.4,0.027c0.132-0.043,0.238-0.14,0.294-0.267c0.134-0.252,0.038-0.566-0.214-0.7
			c-0.974-0.552-2.124-0.705-3.209-0.428c-1.079,0.368-1.978,1.133-2.513,2.139c-0.157,0.235-0.094,0.553,0.141,0.71
			c0.006,0.004,0.012,0.008,0.019,0.012 M56.044,94.437c0.387,0,0.7,0.313,0.7,0.7c0,0.007,0,0.015,0,0.022
			c0.004,0.392-0.308,0.714-0.7,0.722c-0.387,0-0.7-0.313-0.7-0.7c0-0.007,0-0.015,0-0.022c-0.023-0.375,0.263-0.698,0.638-0.721
			C56.003,94.437,56.023,94.436,56.044,94.437"/>
	</g>
	<g id="Group_748">
		<path id="Path_1927" fill="#FFFFFF" d="M66.472,90.377c-0.004-0.872-0.349-1.707-0.963-2.326c-0.606-0.617-1.435-0.964-2.3-0.963
			c-0.494-0.006-0.982,0.114-1.417,0.348c-0.258,0.129-0.365,0.44-0.241,0.7c0.056,0.127,0.162,0.224,0.294,0.267
			c0.132,0.044,0.275,0.035,0.4-0.027c0.305-0.161,0.644-0.244,0.989-0.241c0.588,0.006,1.153,0.236,1.578,0.642
			c0.417,0.418,0.649,0.987,0.642,1.578c0,0.281,0.227,0.508,0.508,0.508c0.268,0.013,0.495-0.194,0.507-0.461
			c0-0.007,0-0.013,0.001-0.02"/>
	</g>
	<g id="Group_749">
		<path id="Path_1928" fill="#FFFFFF" d="M60.644,98.586c-0.214,0.183-0.239,0.505-0.055,0.719c0.001,0.001,0.002,0.002,0.002,0.003
			c0.085,0.105,0.213,0.164,0.348,0.16c0.138,0.009,0.273-0.04,0.374-0.134c0.129-0.102,0.246-0.219,0.348-0.348
			c0.903-0.963,1.475-2.189,1.631-3.5c0.032-0.287-0.17-0.547-0.455-0.588h-0.053c-0.116-0.002-0.229,0.036-0.321,0.107
			c-0.112,0.082-0.181,0.21-0.187,0.348c-0.123,1.095-0.602,2.119-1.364,2.915c-0.058,0.129-0.151,0.24-0.267,0.321"/>
	</g>
	<g id="Group_750">
		<path id="Path_1929" fill="#FFFFFF" d="M63.638,101.715c0.07-0.019,0.135-0.056,0.187-0.107c0.167-0.144,0.327-0.296,0.481-0.455
			c1.216-1.291,1.912-2.986,1.952-4.759c-0.001-0.103-0.029-0.204-0.08-0.294c-0.099-0.145-0.254-0.242-0.428-0.267
			c-0.129-0.001-0.253,0.047-0.348,0.134c-0.106,0.095-0.164,0.232-0.16,0.374c-0.027,1.522-0.618,2.979-1.657,4.091
			c-0.118,0.131-0.243,0.256-0.374,0.374c-0.186,0.169-0.241,0.44-0.134,0.668C63.171,101.69,63.417,101.796,63.638,101.715"/>
	</g>
	<g id="Group_751">
		<path id="Path_1930" fill="#FFFFFF" d="M72.944,108.827c0.269,0.008,0.5-0.189,0.535-0.455c0.428-3.85-0.16-6.845-1.738-8.9
			c-0.428-0.508-0.374-0.7,0.027-1.123l0.749-0.856c0.192-0.205,0.182-0.526-0.023-0.718c-0.001-0.001-0.003-0.003-0.004-0.004
			l-3.262-3.209c-0.4-0.321-0.267-0.615-0.107-0.936l0.027-0.053c0.473-0.933,0.676-1.979,0.588-3.021
			c-0.355-3.262-3.165-5.699-6.444-5.588c-1.309,0.061-2.564,0.539-3.583,1.364c-0.339,0.393-0.902,0.503-1.364,0.267
			c-0.145-0.036-0.288-0.081-0.428-0.134c-1.558-0.427-3.173-0.608-4.786-0.535c-2.14,0.174-4.227,0.755-6.15,1.711
			c-0.621,0.279-1.278,0.468-1.952,0.561c-0.368,0.058-0.744,0.031-1.1-0.08c-0.294-0.107-0.588-0.241-0.909-0.374
			c-0.909-0.428-1.845-0.856-2.727-0.4c-0.724,0.399-1.181,1.153-1.2,1.979c-0.108,1.76,0.341,3.509,1.283,5
			c0.294,0.481,0.615,0.963,0.989,1.471c0.187,0.374,0.214,0.562-0.16,0.936l-2.62,2.674c-0.195,0.169-0.23,0.458-0.08,0.668
			l0.053,0.053c0.856,1.31,1.364,2.112,1.658,2.567c0.214,0.267,0.294,0.428,0.027,0.882c-0.134,0.214-0.267,0.428-0.4,0.668
			c-0.214,0.4-0.428,0.481-0.909,0.428c-0.445-0.04-0.892-0.04-1.337,0H37.49c-0.778-0.023-1.556,0.022-2.326,0.134
			c-0.285,0.033-0.49,0.291-0.456,0.577c0,0.004,0.001,0.008,0.001,0.011c0.018,0.135,0.084,0.259,0.187,0.348
			c0.104,0.087,0.24,0.126,0.374,0.107c0.737-0.084,1.477-0.129,2.219-0.134c0.348,0,0.7,0,1.043,0.027
			c0.064-0.006,0.128,0.003,0.187,0.027c0.134-0.014,0.268,0.025,0.374,0.107c0.08,0.08,0.08,0.214,0.053,0.508
			c-0.03,0.177-0.047,0.356-0.053,0.535v0.267c0.013,0.175-0.044,0.349-0.16,0.481c-0.128,0.103-0.292,0.152-0.455,0.134
			c-0.241,0-0.481,0.027-0.7,0.027c-0.644,0.045-1.287,0.116-1.925,0.214c-0.274,0.035-0.468,0.285-0.432,0.559
			c0.001,0.01,0.003,0.019,0.005,0.029c0.017,0.142,0.095,0.269,0.214,0.348c0.11,0.075,0.241,0.113,0.374,0.107
			c0.615-0.08,1.23-0.16,1.818-0.187c0.294-0.027,0.588-0.027,0.882-0.027H38.9c0.321,0,0.428,0.027,0.7,0.508
			c0.088,0.172,0.196,0.334,0.321,0.481c0.411,0.535,0.942,0.966,1.551,1.257c0.467,0.235,0.907,0.522,1.31,0.856
			c1.5,1.337,1.2,3.369,0.963,5c-0.348,2.326-0.187,3.717,0.535,4.786c0.305,0.431,0.685,0.804,1.123,1.1
			c0.562,0.374,0.535,0.535,0.4,0.936c-0.027,0.053-0.027,0.08-0.053,0.134c-0.34,1.015-0.866,1.958-1.551,2.781
			c-0.912,1.125-2.088,2.007-3.423,2.567c-0.258,0.111-0.378,0.41-0.267,0.668c0.052,0.126,0.146,0.23,0.267,0.294
			c0.128,0.053,0.272,0.053,0.4,0c1.491-0.624,2.804-1.607,3.824-2.861c0.738-0.912,1.317-1.943,1.711-3.048
			c0.022-0.064,0.048-0.127,0.08-0.187c0.107-0.321,0.214-0.508,0.909-0.374c0.6,0.135,1.207,0.233,1.818,0.294
			c1.377,0.145,2.761,0.198,4.145,0.16c1.133-0.007,2.262-0.133,3.369-0.374c1.861-0.287,3.407-1.586,4.011-3.369
			c0.551-1.827,0.769-3.738,0.642-5.642c0-0.348,0.053-0.508,0.16-0.615c0.158-0.081,0.343-0.091,0.508-0.027l2.727,0.909h0.053
			c0.447,0.17,0.946-0.055,1.116-0.502c0.014-0.037,0.025-0.075,0.034-0.113l1.1-3.85c0.187-0.588,0.241-0.615,0.775-0.668h0.08
			l1.471-0.053c0.348,0,0.535,0,0.668,0.107c0.107,0.107,0.134,0.294,0.134,0.615c0,2.995-0.294,4.866-2.059,7.407
			c-1.104,1.602-2.58,2.914-4.3,3.824c-0.249,0.137-0.343,0.447-0.214,0.7c0.056,0.127,0.162,0.224,0.294,0.267
			c0.132,0.044,0.276,0.035,0.4-0.027c1.87-0.986,3.475-2.408,4.679-4.145c0.214-0.321,0.428-0.668,0.642-1.016
			c0.107-0.214,0.241-0.294,0.374-0.267c0.08,0.027,0.214,0.107,0.214,0.508c0,3.021-0.294,4.893-2.059,7.433
			c-1.104,1.602-2.58,2.914-4.3,3.824c-0.249,0.137-0.343,0.447-0.214,0.7c0.056,0.127,0.162,0.224,0.294,0.267
			c0.132,0.044,0.275,0.035,0.4-0.027c1.87-0.986,3.475-2.408,4.679-4.145c0.206-0.282,0.394-0.576,0.562-0.882
			c0.16-0.241,0.294-0.374,0.4-0.374h0.053c0.134,0.027,0.187,0.214,0.187,0.615v4.626c0,0.281,0.227,0.508,0.508,0.508
			c0.282-0.007,0.513-0.227,0.535-0.508v-19.271c0.027-0.588,0.053-0.749,0.7-0.8L72.944,108.827z M41.444,93.105
			c-0.321-0.508-0.267-0.588,0.08-0.909l0.053-0.053c0.437-0.4,0.972-0.676,1.551-0.8c1.102-0.216,2.231,0.21,2.915,1.1
			c0.488,0.693,0.617,1.576,0.348,2.38c-0.107,0.267-0.187,0.4-0.321,0.428h-0.027c-0.107,0-0.214-0.107-0.374-0.267l-0.027-0.027
			c-0.286-0.357-0.653-0.641-1.07-0.829c-0.648-0.318-1.391-0.385-2.086-0.187c-0.288,0.097-0.602-0.042-0.722-0.321
			c-0.101-0.173-0.208-0.343-0.321-0.508 M44.063,95.331c0,0.34-0.275,0.615-0.615,0.615c-0.34,0-0.615-0.275-0.615-0.615
			c0-0.34,0.275-0.615,0.615-0.615l0,0c0.334-0.006,0.609,0.261,0.615,0.595C44.063,95.318,44.063,95.324,44.063,95.331
			 M43.501,109.636c-0.47-0.005-0.934-0.105-1.364-0.294c-1.316-0.582-2.112-1.941-1.975-3.373c0.075-1.088,0.465-2.13,1.123-3
			c0.353-0.359,0.409-0.915,0.134-1.337c-0.4-0.615-1.016-1.551-1.471-2.246c-0.187-0.321-0.348-0.588,0.027-0.856l2.059-2.086
			c0.214-0.214,0.321-0.16,0.508,0c0.264,0.239,0.607,0.372,0.963,0.374c0.533,0.003,1.02-0.298,1.257-0.775l0.027-0.027
			c0.053-0.08,0.107-0.187,0.214-0.187c0.077,0.004,0.143,0.059,0.16,0.134c0.027,0.053,0.08,0.134,0.107,0.187
			c0.125,0.188,0.091,0.44-0.08,0.588l-0.134,0.16l-0.241,0.321c-1.135,1.264-1.895,2.82-2.193,4.492
			c-0.16,1.337,0.7,2.46,2.594,3.369c0.449,0.174,0.915,0.3,1.39,0.374c0.257,0.011,0.455,0.228,0.444,0.485
			c-0.002,0.035-0.007,0.069-0.016,0.103c-0.007,0.85-0.288,1.675-0.8,2.353c-0.708,0.758-1.69,1.2-2.727,1.23 M67.224,107.914
			c-0.225,0.006-0.42,0.158-0.481,0.374l-0.027,0.08l-1.043,3.663c-0.027,0.059-0.044,0.122-0.053,0.187
			c-0.187,0.562-0.267,0.722-0.963,0.508l-2.353-0.775c-0.4-0.08-0.615-0.321-0.722-0.829l-0.107-0.829
			c-0.018-0.135-0.084-0.259-0.187-0.348c-0.104-0.087-0.24-0.126-0.374-0.107c-0.284,0.043-0.484,0.302-0.455,0.588l0.053,0.4
			c0.181,1.409,0.253,2.831,0.214,4.251c0.018,1.332-0.171,2.658-0.562,3.931c-0.5,1.437-1.757,2.477-3.262,2.7
			c-1.038,0.218-2.095,0.334-3.155,0.348h-0.668c-1.117,0.002-2.233-0.06-3.342-0.187c-2.38-0.241-3.8-0.829-4.492-1.818
			c-0.7-1.043-0.588-2.567-0.374-4.038c0.33-1.461,0.265-2.984-0.187-4.412c-0.294-0.775-0.214-0.963,0.4-1.23
			c0.531-0.189,1.076-0.332,1.631-0.428c1.315-0.084,2.63,0.164,3.824,0.722c1.148,0.455,2.408,0.549,3.61,0.267
			c1.899-0.374,3.473-1.695,4.171-3.5c0.107-0.321,0.348-0.321,0.615-0.348c1.271-0.04,2.544,0.041,3.8,0.241
			c0.134,0.019,0.27-0.02,0.374-0.107c0.11-0.087,0.186-0.21,0.214-0.348c0.051-0.271-0.128-0.533-0.399-0.583
			c-0.009-0.002-0.019-0.003-0.029-0.005c-1.238-0.188-2.491-0.268-3.743-0.241c-0.134,0.018-0.27-0.021-0.374-0.107
			c-0.073-0.1-0.093-0.23-0.053-0.348c0.018-0.321,0.009-0.643-0.027-0.963c-0.027-0.428,0.107-0.481,0.348-0.535h0.053
			c1.678-0.21,3.374-0.219,5.054-0.027c0.134,0.019,0.27-0.02,0.374-0.107c0.112-0.082,0.181-0.21,0.187-0.348
			c0.032-0.287-0.17-0.547-0.455-0.588c-3.149-0.369-6.34-0.059-9.359,0.909c-0.264,0.081-0.412,0.361-0.331,0.625
			c0.043,0.139,0.144,0.253,0.278,0.311c0.124,0.062,0.268,0.071,0.4,0.027c0.625-0.197,1.259-0.367,1.9-0.508
			c0.187-0.027,0.348-0.053,0.455,0.053c0.081,0.077,0.129,0.182,0.134,0.294c0.027,0.311,0.027,0.625,0,0.936
			c-0.053,0.374-0.187,0.455-0.508,0.508c-0.856,0.107-1.711,0.241-2.54,0.428c-0.274,0.068-0.449,0.337-0.4,0.615
			c0.029,0.137,0.117,0.255,0.241,0.321c0.106,0.084,0.249,0.104,0.374,0.053c0.619-0.142,1.243-0.258,1.872-0.348
			c0.16-0.027,0.294,0,0.348,0.08c0.08,0.107,0.027,0.321-0.16,0.588c-0.423,0.609-0.981,1.113-1.631,1.471
			c-1.918,0.98-4.234,0.739-5.909-0.615c-0.638-0.551-1.062-1.308-1.2-2.139c-0.059-0.254-0.077-0.516-0.053-0.775v-0.027
			c0.027-0.374,0.053-0.481,0.428-0.561c0.849-0.189,1.656-0.534,2.38-1.016c0.463-0.327,0.855-0.746,1.15-1.23
			c0.107-0.16,0.4-0.7,0.267-1.043c-0.07-0.12-0.186-0.207-0.321-0.241c-0.078-0.024-0.16-0.033-0.241-0.027H44.4
			c-0.189,0.016-0.375-0.053-0.508-0.187c-0.12-0.226-0.12-0.496,0-0.722c0.325-0.945,0.804-1.83,1.417-2.62
			c0.241-0.294,0.481-0.588,0.7-0.882c0.321-0.4,0.668-0.8,0.989-1.283c0.909-1.31,0.909-3.048,0-4.358
			c-0.925-1.198-2.443-1.777-3.931-1.5c-0.596,0.114-1.161,0.353-1.658,0.7c-0.321,0.267-0.508,0.348-0.668,0.294
			s-0.214-0.241-0.294-0.508h-0.053c-0.185-0.743-0.258-1.509-0.214-2.273c-0.012-0.479,0.233-0.928,0.642-1.177
			c0.455-0.241,1.364,0.16,2.139,0.535c0.232,0.118,0.473,0.217,0.722,0.294c0.489,0.168,1.013,0.214,1.524,0.134
			c0.51-0.067,1.013-0.183,1.5-0.348c0.428-0.16,0.882-0.348,1.283-0.508c0.294-0.134,0.615-0.267,0.909-0.374
			c1.399-0.567,2.879-0.91,4.385-1.016c1.878-0.068,3.753,0.203,5.535,0.8l0.08,0.027c0.4,0.134,0.615,0.187,1.123-0.267
			c1.992-2.02,5.244-2.043,7.265-0.051c0.854,0.842,1.387,1.957,1.505,3.151c0.084,1.172-0.269,2.334-0.989,3.262
			c-0.162,0.213-0.139,0.513,0.053,0.7l3.128,3.075c0.267,0.267,0.481,0.481,0.053,1.016l-0.8,0.936
			c-0.185,0.213-0.162,0.535,0.05,0.72c0.001,0.001,0.002,0.002,0.003,0.002c1.765,1.631,2.54,4.225,2.353,7.674
			c-0.027,0.8-0.294,0.829-0.8,0.829L67.224,107.914z"/>
	</g>
	<g id="Group_752">
		<path id="Path_1931" fill="#FFFFFF" d="M59.254,90.835c0.139-0.245,0.056-0.557-0.187-0.7c-0.853-0.478-1.805-0.752-2.781-0.8
			h-0.214c-0.897,0.004-1.783,0.205-2.594,0.588c-0.486,0.243-0.943,0.539-1.364,0.882c-0.214,0.183-0.239,0.505-0.055,0.719
			c0.001,0.001,0.002,0.002,0.002,0.003c0.089,0.103,0.213,0.169,0.348,0.187c0.138,0.009,0.273-0.04,0.374-0.134
			c0.346-0.289,0.723-0.54,1.123-0.749c0.735-0.345,1.542-0.51,2.353-0.481c0.81,0.032,1.599,0.262,2.3,0.668
			c0.121,0.071,0.265,0.09,0.4,0.053c0.124-0.042,0.229-0.128,0.294-0.241"/>
	</g>
</g>
</svg>
